<?xml version="1.0" encoding="UTF-8"?>
<!DOCTYPE svg PUBLIC "-//W3C//DTD SVG 1.1//EN" "http://www.w3.org/Graphics/SVG/1.1/DTD/svg11.dtd">
<svg xmlns="http://www.w3.org/2000/svg" version="1.1" width="1920px" height="1080px" style="shape-rendering:geometricPrecision; text-rendering:geometricPrecision; image-rendering:optimizeQuality; fill-rule:evenodd; clip-rule:evenodd" xmlns:xlink="http://www.w3.org/1999/xlink">
<g><path style="opacity:1" fill="#1b1c1a" d="M 508.5,474.5 C 508.727,513.175 508.393,551.842 507.5,590.5C 500.284,667.119 465.95,728.286 404.5,774C 396.859,779.484 388.859,784.317 380.5,788.5C 378.973,788.427 377.973,789.094 377.5,790.5C 333.161,814.062 285.828,823.562 235.5,819C 228.259,818.46 221.259,817.293 214.5,815.5C 211.781,814.087 208.781,813.42 205.5,813.5C 134.572,795.398 80.7384,754.731 44,691.5C 26.4008,659.368 16.0674,625.034 13,588.5C 12.5,478.834 12.3333,369.167 12.5,259.5C 177.501,259.167 342.501,259.5 507.5,260.5C 508.497,331.792 508.83,403.125 508.5,474.5 Z"/></g>
<g><path style="opacity:1" fill="#f9faf9" d="M 496.5,271.5 C 496.667,374.834 496.5,478.167 496,581.5C 495.727,588.867 495.227,596.2 494.5,603.5C 479.048,692.801 429.715,755.634 346.5,792C 290.017,812.222 233.35,812.555 176.5,793C 100.032,759.889 51.1986,703.056 30,622.5C 27.7214,612.607 26.0547,602.607 25,592.5C 24.0356,485.502 23.5356,378.502 23.5,271.5C 181.167,271.5 338.833,271.5 496.5,271.5 Z"/></g>
<g><path style="opacity:1" fill="#1c1f1e" d="M 496.5,271.5 C 497.179,280.235 497.846,289.068 498.5,298C 498.624,390.912 498.457,485.412 498,581.5C 497.602,587.342 497.102,593.176 496.5,599C 496.431,600.986 495.765,602.486 494.5,603.5C 495.227,596.2 495.727,588.867 496,581.5C 496.5,478.167 496.667,374.834 496.5,271.5 Z"/></g>
<g><path style="opacity:1" fill="#171816" d="M 34.5,282.5 C 184.833,282.5 335.167,282.5 485.5,282.5C 486.595,382.496 486.762,482.496 486,582.5C 478.828,661.253 442.328,722.087 376.5,765C 298.43,808.628 220.764,808.295 143.5,764C 75.8033,719.211 39.6366,656.044 35,574.5C 34.5,477.167 34.3333,379.834 34.5,282.5 Z"/></g>
<g><path style="opacity:1" fill="#001913" d="M 480.5,287.5 C 333.5,287.5 186.5,287.5 39.5,287.5C 39.7828,286.711 40.2828,286.044 41,285.5C 184.74,285.715 331.24,286.382 480.5,287.5 Z"/></g>
<g><path style="opacity:1" fill="#c10418" d="M 39.5,288.5 C 39.5,288.167 39.5,287.833 39.5,287.5C 186.5,287.5 333.5,287.5 480.5,287.5C 480.5,288.833 480.5,290.167 480.5,291.5C 479.596,290.791 479.263,289.791 479.5,288.5C 332.833,288.5 186.167,288.5 39.5,288.5 Z"/></g>
<g><path style="opacity:1" fill="#fd001c" d="M 39.5,288.5 C 186.167,288.5 332.833,288.5 479.5,288.5C 479.263,289.791 479.596,290.791 480.5,291.5C 480.685,389.914 480.685,488.247 480.5,586.5C 471.129,671.438 428.462,733.272 352.5,772C 274.803,804.589 201.136,797.255 131.5,750C 76.6308,708.106 46.4641,652.606 41,583.5C 39.863,485.17 39.363,386.837 39.5,288.5 Z"/></g>
<g><path style="opacity:1" fill="#161613" d="M 215.5,299.5 C 268.207,298.906 320.874,300.073 373.5,303C 381.68,304.513 386.513,309.346 388,317.5C 391.527,408.966 399.861,499.966 413,590.5C 414.702,598.53 414.702,606.53 413,614.5C 410.9,617.467 408.066,619.3 404.5,620C 372.5,620.333 340.5,620.667 308.5,621C 304.934,621.7 302.1,623.533 300,626.5C 298.368,647.102 298.035,667.769 299,688.5C 307.254,694.443 308.587,701.776 303,710.5C 302.333,720.5 302.333,730.5 303,740.5C 303.704,746.573 306.038,751.906 310,756.5C 311.613,764.777 308.446,770.277 300.5,773C 272.725,781.97 245.059,781.637 217.5,772C 211.888,767.824 210.055,762.324 212,755.5C 214.588,751.326 216.921,746.993 219,742.5C 219.667,731.833 219.667,721.167 219,710.5C 215.713,706.018 214.713,701.018 216,695.5C 217.667,692.5 220,690.167 223,688.5C 223.683,668.818 223.35,649.151 222,629.5C 220.5,625.333 217.667,622.5 213.5,621C 181.167,620.667 148.833,620.333 116.5,620C 111.12,618.113 107.953,614.279 107,608.5C 106.333,605.167 106.333,601.833 107,598.5C 113.232,556.314 118.232,513.981 122,471.5C 126.098,418.159 129.765,364.826 133,311.5C 136.442,305.692 141.609,302.859 148.5,303C 170.993,301.907 193.326,300.74 215.5,299.5 Z"/></g>
<g><path style="opacity:1" fill="#fcfcfc" d="M 402.5,612.5 C 375.994,612.166 349.66,612.166 323.5,612.5C 309.427,609.458 298.927,614.125 292,626.5C 290.88,646.791 290.047,667.124 289.5,687.5C 287.724,685.462 286.057,683.296 284.5,681C 279.484,679.079 274.484,679.079 269.5,681C 274.015,682.005 278.349,683.505 282.5,685.5C 282.167,685.833 281.833,686.167 281.5,686.5C 264.471,684.984 247.471,685.317 230.5,687.5C 230.667,668.497 230.5,649.497 230,630.5C 227.696,622.192 222.529,616.359 214.5,613C 182.5,612.667 150.5,612.333 118.5,612C 117.5,611.5 116.5,611 115.5,610.5C 114.336,604.193 114.169,597.859 115,591.5C 121.756,547.36 126.756,503.027 130,458.5C 134.162,411.24 137.162,363.906 139,316.5C 139.685,313.943 141.185,312.109 143.5,311C 160.127,309.41 176.794,308.41 193.5,308C 238.167,307.333 282.833,307.333 327.5,308C 343.827,309.102 360.161,310.102 376.5,311C 377.667,312.167 378.833,313.333 380,314.5C 383.132,369.556 387.132,424.556 392,479.5C 395.436,517.984 400.102,556.318 406,594.5C 406.667,599.5 406.667,604.5 406,609.5C 405.578,611.426 404.411,612.426 402.5,612.5 Z"/></g>
<g><path style="opacity:1" fill="#251a14" d="M 480.5,287.5 C 481.201,294.037 481.868,300.703 482.5,307.5C 482.66,398.656 482.493,489.99 482,581.5C 481.667,585.833 481.333,590.167 481,594.5C 480.503,591.854 480.336,589.187 480.5,586.5C 480.685,488.247 480.685,389.914 480.5,291.5C 480.5,290.167 480.5,288.833 480.5,287.5 Z"/></g>
<g><path style="opacity:1" fill="#0d0e0e" d="M 243.5,313.5 C 243.821,319.026 243.488,324.36 242.5,329.5C 241.98,324.486 241.313,319.486 240.5,314.5C 240.876,312.197 241.876,311.863 243.5,313.5 Z"/></g>
<g><path style="opacity:1" fill="#171918" d="M 184.5,313.5 C 185.827,317.783 186.493,322.449 186.5,327.5C 186.167,332.167 185.833,336.833 185.5,341.5C 183.567,332.187 183.234,322.853 184.5,313.5 Z"/></g>
<g><path style="opacity:1" fill="#1e2120" d="M 266.5,312.5 C 267.821,315.598 268.488,319.098 268.5,323C 268.601,327.281 268.101,331.448 267,335.5C 266.5,327.841 266.334,320.174 266.5,312.5 Z"/></g>
<g><path style="opacity:1" fill="#0e0f0e" d="M 346.5,314.5 C 346.806,317.385 346.473,320.052 345.5,322.5C 345.656,319.934 345.322,317.434 344.5,315C 345.031,313.282 345.698,313.115 346.5,314.5 Z"/></g>
<g><path style="opacity:1" fill="#101110" d="M 175.5,314.5 C 176.5,314.5 177.5,314.5 178.5,314.5C 177.306,329.47 176.472,344.47 176,359.5C 175.661,347.326 175.161,335.159 174.5,323C 174.548,320.081 174.881,317.248 175.5,314.5 Z"/></g>
<g><path style="opacity:1" fill="#262927" d="M 191.5,313.5 C 192.922,313.75 193.922,314.583 194.5,316C 193.861,320.121 193.195,324.287 192.5,328.5C 191.506,323.544 191.173,318.544 191.5,313.5 Z"/></g>
<g><path style="opacity:1" fill="#0b0b0a" d="M 252.5,335.5 C 251.833,335.5 251.167,335.5 250.5,335.5C 250.732,327.741 250.065,320.075 248.5,312.5C 249.822,312.33 250.989,312.663 252,313.5C 252.5,320.826 252.666,328.159 252.5,335.5 Z"/></g>
<g><path style="opacity:1" fill="#252827" d="M 351.5,314.5 C 352.5,314.5 353.5,314.5 354.5,314.5C 354.869,317.319 355.202,320.152 355.5,323C 355.577,325.051 355.077,326.884 354,328.5C 353.002,323.844 352.169,319.178 351.5,314.5 Z"/></g>
<g><path style="opacity:1" fill="#191a19" d="M 357.5,314.5 C 359.39,314.297 360.89,314.963 362,316.5C 362.272,323.512 361.939,330.512 361,337.5C 359.896,329.815 358.729,322.148 357.5,314.5 Z"/></g>
<g><path style="opacity:1" fill="#67736f" d="M 346.5,314.5 C 347.803,317.355 347.803,320.355 346.5,323.5C 345.893,323.376 345.56,323.043 345.5,322.5C 346.473,320.052 346.806,317.385 346.5,314.5 Z"/></g>
<g><path style="opacity:1" fill="#1b1d1c" d="M 364.5,314.5 C 365.675,314.281 366.675,314.614 367.5,315.5C 369.972,320.419 370.138,325.419 368,330.5C 366.673,325.243 365.506,319.91 364.5,314.5 Z"/></g>
<g><path style="opacity:1" fill="#0b0b0a" d="M 167.5,364.5 C 166.833,355.5 166.167,346.5 165.5,337.5C 165.334,331.158 165.5,324.825 166,318.5C 166.308,317.692 166.808,317.025 167.5,316.5C 168.434,332.493 168.434,348.493 167.5,364.5 Z"/></g>
<g><path style="opacity:1" fill="#4f5653" d="M 281.5,314.5 C 282.649,314.791 283.316,315.624 283.5,317C 283.167,317.833 282.833,318.667 282.5,319.5C 281.548,317.955 281.215,316.288 281.5,314.5 Z"/></g>
<g><path style="opacity:1" fill="#121312" d="M 370.5,315.5 C 374.592,316.987 376.758,319.987 377,324.5C 377.667,334.833 377.667,345.167 377,355.5C 375.715,342 373.548,328.666 370.5,315.5 Z"/></g>
<g><path style="opacity:1" fill="#4f5754" d="M 198.5,316.5 C 199.586,316.62 200.253,317.287 200.5,318.5C 200.167,319.167 199.833,319.833 199.5,320.5C 198.571,319.311 198.238,317.978 198.5,316.5 Z"/></g>
<g><path style="opacity:1" fill="#444b49" d="M 259.5,312.5 C 259.829,327.343 259.496,342.01 258.5,356.5C 257.96,348.015 257.626,339.515 257.5,331C 257.504,324.462 258.17,318.295 259.5,312.5 Z"/></g>
<g><path style="opacity:1" fill="#6a7672" d="M 259.5,312.5 C 260.661,327.328 260.828,342.328 260,357.5C 258.893,358.712 258.393,358.379 258.5,356.5C 259.496,342.01 259.829,327.343 259.5,312.5 Z"/></g>
<g><path style="opacity:1" fill="#151615" d="M 157.5,318.5 C 158.496,318.414 159.329,318.748 160,319.5C 159.638,339.88 158.304,360.213 156,380.5C 156.001,359.77 156.501,339.104 157.5,318.5 Z"/></g>
<g><path style="opacity:1" fill="#88928e" d="M 243.5,313.5 C 244.87,321.055 244.703,328.721 243,336.5C 242.503,334.19 242.337,331.857 242.5,329.5C 243.488,324.36 243.821,319.026 243.5,313.5 Z"/></g>
<g><path style="opacity:1" fill="#282b29" d="M 275.5,313.5 C 276.787,314.871 277.453,316.705 277.5,319C 277.283,323.57 276.616,328.07 275.5,332.5C 274.248,326.143 274.248,319.81 275.5,313.5 Z"/></g>
<g><path style="opacity:1" fill="#121312" d="M 144.5,420.5 C 143.833,421.5 143.167,422.5 142.5,423.5C 144.511,389.161 146.011,354.827 147,320.5C 147.689,319.643 148.522,318.977 149.5,318.5C 150.445,336.832 150.278,355.165 149,373.5C 147.316,389.156 145.816,404.823 144.5,420.5 Z"/></g>
<g><path style="opacity:1" fill="#272b29" d="M 367.5,331.5 C 368.586,331.62 369.253,332.287 369.5,333.5C 369.167,334.167 368.833,334.833 368.5,335.5C 367.571,334.311 367.238,332.978 367.5,331.5 Z"/></g>
<g><path style="opacity:1" fill="#63726d" d="M 250.5,335.5 C 251.167,335.5 251.833,335.5 252.5,335.5C 251.833,348.833 251.167,348.833 250.5,335.5 Z"/></g>
<g><path style="opacity:1" fill="#69887f" d="M 722.5,336.5 C 711.5,336.5 700.5,336.5 689.5,336.5C 694.679,335.742 700.012,335.075 705.5,334.5C 711.32,335.081 716.987,335.747 722.5,336.5 Z"/></g>
<g><path style="opacity:1" fill="#083623" d="M 689.5,336.5 C 700.5,336.5 711.5,336.5 722.5,336.5C 729.302,336.827 735.969,337.994 742.5,340C 748.853,342.18 755.187,344.347 761.5,346.5C 764.028,346.237 766.361,345.404 768.5,344C 769.808,341.205 771.474,338.705 773.5,336.5C 776.5,337.167 779.5,337.833 782.5,338.5C 785.718,357.14 788.718,375.807 791.5,394.5C 788.167,395.167 784.833,395.833 781.5,396.5C 778.351,396.789 775.351,396.289 772.5,395C 765.833,379 754.5,367.667 738.5,361C 734.157,359.717 729.824,358.55 725.5,357.5C 720.566,355.617 715.566,355.284 710.5,356.5C 696.939,356.961 685.106,361.628 675,370.5C 664.51,390.698 670.343,403.865 692.5,410C 716.453,413.966 740.453,417.632 764.5,421C 808.092,433.344 822.925,461.178 809,504.5C 797.59,527.13 779.424,540.963 754.5,546C 724.45,551.827 695.783,547.827 668.5,534C 662.225,531.605 656.225,532.105 650.5,535.5C 648.418,538.152 647.085,541.152 646.5,544.5C 644.257,545.474 641.924,545.808 639.5,545.5C 637.393,544.532 635.059,544.198 632.5,544.5C 632.737,543.209 632.404,542.209 631.5,541.5C 628.094,521.93 625.094,502.263 622.5,482.5C 629.507,482.059 636.507,481.892 643.5,482C 648.106,492.888 655.106,501.888 664.5,509C 679.165,517.444 694.832,523.111 711.5,526C 732.104,529.907 749.604,524.407 764,509.5C 773.241,494.039 770.741,480.872 756.5,470C 752.729,467.781 748.729,466.115 744.5,465C 715.11,463.522 686.444,458.189 658.5,449C 627.128,436.088 615.628,413.255 624,380.5C 631.141,362.692 643.641,350.192 661.5,343C 670.484,339.254 679.817,337.087 689.5,336.5 Z"/></g>
<g><path style="opacity:1" fill="#e6c25d" d="M 811.5,392.5 C 811.5,393.5 811.5,394.5 811.5,395.5C 809.167,395.5 806.833,395.5 804.5,395.5C 800.576,375.958 797.076,356.291 794,336.5C 796.132,337.78 798.298,337.78 800.5,336.5C 802.167,336.833 803.167,337.833 803.5,339.5C 806.354,357.146 809.021,374.812 811.5,392.5 Z"/></g>
<g><path style="opacity:1" fill="#063522" d="M 915.5,470.5 C 913.5,470.5 911.5,470.5 909.5,470.5C 909.5,473.167 909.5,475.833 909.5,478.5C 909.333,491.837 909.5,505.171 910,518.5C 911.957,525.291 916.457,528.957 923.5,529.5C 926.625,530.479 929.958,530.813 933.5,530.5C 933.5,535.167 933.5,539.833 933.5,544.5C 911.5,544.5 889.5,544.5 867.5,544.5C 858.957,544.576 850.623,544.576 842.5,544.5C 839.721,544.721 837.054,544.388 834.5,543.5C 834.5,538.833 834.5,534.167 834.5,529.5C 840.232,529.717 845.899,529.217 851.5,528C 854.176,526.16 856.009,523.66 857,520.5C 858.148,495.381 858.648,470.214 858.5,445C 858.615,417.479 858.115,389.979 857,362.5C 855.5,359 853,356.5 849.5,355C 844.552,353.95 839.552,353.45 834.5,353.5C 832.847,348.165 833.18,342.998 835.5,338C 867.728,337.674 899.894,337.508 932,337.5C 947.108,338.29 962.275,339.123 977.5,340C 997.613,343.304 1014.45,352.47 1028,367.5C 1042.08,389.843 1043.08,412.843 1031,436.5C 1014.71,458.062 992.881,469.228 965.5,470C 949.259,470.175 933.093,470.675 917,471.5C 916.617,470.944 916.117,470.611 915.5,470.5 Z M 952.5,444.5 C 938.52,445.366 924.52,445.699 910.5,445.5C 910.817,441.298 910.483,437.298 909.5,433.5C 909.5,410.167 909.5,386.833 909.5,363.5C 928.901,361.339 947.901,363.173 966.5,369C 989.642,381.708 995.809,400.208 985,424.5C 977.314,436.101 966.481,442.768 952.5,444.5 Z"/></g>
<g><path style="opacity:1" fill="#adb4af" d="M 1150.5,339.5 C 1129.83,339.5 1109.17,339.5 1088.5,339.5C 1088.5,340.5 1088.5,341.5 1088.5,342.5C 1087.57,341.432 1087.23,340.099 1087.5,338.5C 1108.67,338.169 1129.67,338.503 1150.5,339.5 Z"/></g>
<g><path style="opacity:1" fill="#043422" d="M 1254.5,338.5 C 1306,339.499 1357.66,339.832 1409.5,339.5C 1415.28,355.839 1420.28,372.506 1424.5,389.5C 1419.36,390.488 1414.03,390.821 1408.5,390.5C 1406.29,385.072 1403.79,379.739 1401,374.5C 1391.38,365.771 1380.05,361.771 1367,362.5C 1360.59,363.478 1354.09,363.811 1347.5,363.5C 1347.07,415.85 1347.57,468.183 1349,520.5C 1350.42,524.251 1352.92,527.084 1356.5,529C 1361.12,529.994 1365.78,530.494 1370.5,530.5C 1370.67,535.179 1370.5,539.845 1370,544.5C 1368.91,545.293 1367.75,545.96 1366.5,546.5C 1348.39,545.587 1330.06,545.253 1311.5,545.5C 1300.01,544.505 1288.35,544.172 1276.5,544.5C 1276.5,540.167 1276.5,535.833 1276.5,531.5C 1280.46,531.749 1284.12,531.082 1287.5,529.5C 1293.31,527.526 1296.81,523.526 1298,517.5C 1298.5,466.168 1298.67,414.834 1298.5,363.5C 1288.16,363.334 1277.83,363.5 1267.5,364C 1258.23,364.418 1250.4,367.918 1244,374.5C 1241.19,379.773 1238.69,385.106 1236.5,390.5C 1231.5,390.5 1226.5,390.5 1221.5,390.5C 1221.5,389.5 1221.5,388.5 1221.5,387.5C 1225.28,371.321 1229.78,355.321 1235,339.5C 1235.5,339 1236,338.5 1236.5,338C 1242.68,337.181 1248.68,337.347 1254.5,338.5 Z"/></g>
<g><path style="opacity:1" fill="#52756b" d="M 1409.5,339.5 C 1357.66,339.832 1306,339.499 1254.5,338.5C 1256.24,337.914 1258.08,337.581 1260,337.5C 1309.99,338.146 1359.82,338.813 1409.5,339.5 Z"/></g>
<g><path style="opacity:1" fill="#063522" d="M 1150.5,339.5 C 1150.95,348.282 1153.11,356.615 1157,364.5C 1184.52,414.881 1211.52,465.548 1238,516.5C 1242.04,525.781 1249.21,530.448 1259.5,530.5C 1259.5,535.167 1259.5,539.833 1259.5,544.5C 1256.17,544.5 1252.83,544.5 1249.5,544.5C 1222.5,544.5 1195.5,544.5 1168.5,544.5C 1168.5,539.833 1168.5,535.167 1168.5,530.5C 1171.06,530.802 1173.39,530.468 1175.5,529.5C 1182.46,526.919 1185.29,521.919 1184,514.5C 1182.84,509.172 1180.84,504.172 1178,499.5C 1174.3,493.966 1170.8,488.299 1167.5,482.5C 1138.6,481.172 1109.77,481.172 1081,482.5C 1075.48,493.375 1070.65,504.542 1066.5,516C 1069.77,525.984 1076.77,530.484 1087.5,529.5C 1088.37,533.808 1088.53,538.141 1088,542.5C 1087.16,543.624 1085.99,544.291 1084.5,544.5C 1059.84,545.792 1035.17,545.792 1010.5,544.5C 1010.7,541.272 1010.37,538.105 1009.5,535C 1010,533.5 1010.5,532 1011,530.5C 1020.21,530.593 1028.54,527.593 1036,521.5C 1037.75,517.673 1039.75,514.007 1042,510.5C 1063.66,462.35 1084.82,414.017 1105.5,365.5C 1104.19,355.66 1098.52,351.327 1088.5,352.5C 1088.5,349.167 1088.5,345.833 1088.5,342.5C 1088.5,341.5 1088.5,340.5 1088.5,339.5C 1109.17,339.5 1129.83,339.5 1150.5,339.5 Z M 1154.5,456.5 C 1150.83,457.167 1147.17,457.833 1143.5,458.5C 1126.12,457.759 1108.78,457.592 1091.5,458C 1101.13,436.574 1110.63,415.074 1120,393.5C 1131.53,414.562 1143.03,435.562 1154.5,456.5 Z"/></g>
<g><path style="opacity:1" fill="#e6c25a" d="M 1163.5,338.5 C 1166.17,338.5 1168.83,338.5 1171.5,338.5C 1171.53,349.289 1174.36,359.289 1180,368.5C 1207.33,419.833 1234.67,471.167 1262,522.5C 1272.57,531.564 1271.4,533.398 1258.5,528C 1255.3,525.131 1252.46,521.965 1250,518.5C 1221.67,464.5 1193.33,410.5 1165,356.5C 1162.69,350.577 1162.19,344.577 1163.5,338.5 Z"/></g>
<g><path style="opacity:1" fill="#063522" d="M 1452.5,339.5 C 1504.83,340.065 1557.16,340.398 1609.5,340.5C 1612.23,353.928 1614.23,367.595 1615.5,381.5C 1615.5,382.5 1615.5,383.5 1615.5,384.5C 1611.17,384.5 1606.83,384.5 1602.5,384.5C 1599.57,374.072 1592.91,367.572 1582.5,365C 1557.17,364.5 1531.84,364.333 1506.5,364.5C 1505.18,385.706 1505.18,407.039 1506.5,428.5C 1512.66,429.166 1518.99,429.5 1525.5,429.5C 1532.91,429.613 1540.24,429.113 1547.5,428C 1552.76,423.387 1555.43,417.554 1555.5,410.5C 1560.18,409.296 1564.84,409.296 1569.5,410.5C 1570.41,430.827 1570.58,451.16 1570,471.5C 1565.26,472.469 1560.43,472.803 1555.5,472.5C 1555.28,467.603 1554.11,462.936 1552,458.5C 1550.27,456.383 1548.1,454.883 1545.5,454C 1532.5,453.5 1519.5,453.333 1506.5,453.5C 1506.5,475.833 1506.5,498.167 1506.5,520.5C 1536.53,520.943 1566.53,520.443 1596.5,519C 1601.16,517.353 1604.99,514.52 1608,510.5C 1611.27,505.342 1613.77,499.842 1615.5,494C 1619.15,493.501 1622.82,493.335 1626.5,493.5C 1628.26,494.552 1628.92,496.219 1628.5,498.5C 1625.97,512.956 1622.97,527.289 1619.5,541.5C 1618.6,542.209 1618.26,543.209 1618.5,544.5C 1562.83,544.5 1507.17,544.5 1451.5,544.5C 1445.5,544.5 1439.5,544.5 1433.5,544.5C 1433.5,539.833 1433.5,535.167 1433.5,530.5C 1439.44,530.487 1445.1,529.321 1450.5,527C 1452.04,525.421 1453.21,523.587 1454,521.5C 1455.15,496.547 1455.65,471.547 1455.5,446.5C 1455.61,419.146 1455.11,391.813 1454,364.5C 1452.58,360.749 1450.08,357.916 1446.5,356C 1441.84,355.335 1437.18,354.835 1432.5,354.5C 1432.5,349.5 1432.5,344.5 1432.5,339.5C 1439.17,339.5 1445.83,339.5 1452.5,339.5 Z"/></g>
<g><path style="opacity:1" fill="#668d83" d="M 1452.5,339.5 C 1476.14,338.584 1499.81,338.25 1523.5,338.5C 1552.33,339.108 1580.99,339.775 1609.5,340.5C 1557.16,340.398 1504.83,340.065 1452.5,339.5 Z"/></g>
<g><path style="opacity:1" fill="#949f9a" d="M 1707.5,340.5 C 1686.83,340.5 1666.17,340.5 1645.5,340.5C 1645.82,344.702 1645.48,348.702 1644.5,352.5C 1644.5,348.167 1644.5,343.833 1644.5,339.5C 1665.67,339.169 1686.67,339.503 1707.5,340.5 Z"/></g>
<g><path style="opacity:1" fill="#e5c25a" d="M 1626.5,339.5 C 1627.83,339.5 1629.17,339.5 1630.5,339.5C 1632.12,353.328 1633.78,367.161 1635.5,381C 1635.17,382.5 1634.83,384 1634.5,385.5C 1631.92,384.607 1629.25,384.274 1626.5,384.5C 1625.35,371.482 1624.02,358.482 1622.5,345.5C 1622.5,343.833 1622.5,342.167 1622.5,340.5C 1624.1,340.768 1625.43,340.434 1626.5,339.5 Z"/></g>
<g><path style="opacity:1" fill="#053422" d="M 1700.5,410.5 C 1700.44,409.957 1700.11,409.624 1699.5,409.5C 1698.17,445.664 1698.17,481.664 1699.5,517.5C 1701.07,525.734 1706.07,530.068 1714.5,530.5C 1716.95,531.473 1719.61,531.806 1722.5,531.5C 1722.26,532.791 1722.6,533.791 1723.5,534.5C 1723.5,536.833 1723.5,539.167 1723.5,541.5C 1723.5,542.833 1723.5,544.167 1723.5,545.5C 1712.83,545.5 1702.17,545.5 1691.5,545.5C 1676.17,545.5 1660.83,545.5 1645.5,545.5C 1645.5,540.833 1645.5,536.167 1645.5,531.5C 1647.74,531.795 1649.74,531.461 1651.5,530.5C 1660.61,531.045 1666.44,527.045 1669,518.5C 1668.86,467.171 1668.52,415.837 1668,364.5C 1666.5,360.333 1663.67,357.5 1659.5,356C 1655.17,355.667 1650.83,355.333 1646.5,355C 1645.24,354.583 1644.58,353.75 1644.5,352.5C 1645.48,348.702 1645.82,344.702 1645.5,340.5C 1666.17,340.5 1686.83,340.5 1707.5,340.5C 1747.2,385.371 1786.37,430.704 1825,476.5C 1827.7,479.371 1830.54,482.038 1833.5,484.5C 1834.66,447.336 1834.83,410.002 1834,372.5C 1833.81,369.964 1833.31,367.631 1832.5,365.5C 1830.05,360.28 1826.05,356.946 1820.5,355.5C 1817.04,354.518 1813.37,354.185 1809.5,354.5C 1809.82,350.298 1809.48,346.298 1808.5,342.5C 1814.42,340.702 1820.75,339.869 1827.5,340C 1847.16,339.5 1866.83,339.333 1886.5,339.5C 1887.62,344.192 1887.62,348.859 1886.5,353.5C 1882.32,355.021 1877.99,355.855 1873.5,356C 1867.77,356.772 1864.27,359.938 1863,365.5C 1862.5,425.499 1862.33,485.499 1862.5,545.5C 1847.52,546.201 1832.52,546.035 1817.5,545C 1778.61,500.042 1739.61,455.208 1700.5,410.5 Z"/></g>
<g><path style="opacity:1" fill="#e6c25c" d="M 1718.5,339.5 C 1721.52,339.335 1724.52,339.502 1727.5,340C 1760.04,376.871 1792.21,414.038 1824,451.5C 1824.82,454.554 1824.65,457.554 1823.5,460.5C 1788.08,420.423 1753.08,380.09 1718.5,339.5 Z"/></g>
<g><path style="opacity:1" fill="#efdead" d="M 1904.5,340.5 C 1905.21,339.596 1906.21,339.263 1907.5,339.5C 1907.5,343.833 1907.5,348.167 1907.5,352.5C 1907.13,348.232 1906.13,344.232 1904.5,340.5 Z"/></g>
<g><path style="opacity:1" fill="#f5efdc" d="M 1626.5,339.5 C 1625.43,340.434 1624.1,340.768 1622.5,340.5C 1622.5,342.167 1622.5,343.833 1622.5,345.5C 1621.54,343.735 1621.21,341.735 1621.5,339.5C 1623.17,339.5 1624.83,339.5 1626.5,339.5 Z"/></g>
<g><path style="opacity:1" fill="#e6c360" d="M 1000.5,467.5 C 999.508,467.672 998.842,467.338 998.5,466.5C 1017.35,460.5 1032.52,449.5 1044,433.5C 1058.91,399.621 1051.08,372.455 1020.5,352C 1012.09,347.479 1003.42,343.645 994.5,340.5C 1019.83,342.75 1039.66,354.417 1054,375.5C 1065.56,403.643 1060.72,428.476 1039.5,450C 1027.98,459.095 1014.98,464.928 1000.5,467.5 Z"/></g>
<g><path style="opacity:1" fill="#c0c5c0" d="M 1808.5,342.5 C 1809.48,346.298 1809.82,350.298 1809.5,354.5C 1813.37,354.185 1817.04,354.518 1820.5,355.5C 1816.5,355.5 1812.5,355.5 1808.5,355.5C 1808.5,351.167 1808.5,346.833 1808.5,342.5 Z"/></g>
<g><path style="opacity:1" fill="#628077" d="M 710.5,356.5 C 715.566,355.284 720.566,355.617 725.5,357.5C 720.507,357.084 715.507,356.751 710.5,356.5 Z"/></g>
<g><path style="opacity:1" fill="#e6c25c" d="M 1904.5,340.5 C 1906.13,344.232 1907.13,348.232 1907.5,352.5C 1907.42,353.75 1906.76,354.583 1905.5,355C 1896.77,354.901 1889.6,358.067 1884,364.5C 1882.94,421.833 1882.44,479.167 1882.5,536.5C 1881.53,538.948 1881.19,541.615 1881.5,544.5C 1879.5,544.5 1877.5,544.5 1875.5,544.5C 1875.83,534.985 1875.49,525.652 1874.5,516.5C 1873.41,466.84 1873.25,417.173 1874,367.5C 1875.81,362.828 1878.98,359.328 1883.5,357C 1888.34,355.701 1893.17,354.534 1898,353.5C 1898.5,349.179 1898.67,344.846 1898.5,340.5C 1900.5,340.5 1902.5,340.5 1904.5,340.5 Z"/></g>
<g><path style="opacity:1" fill="#6c7a75" d="M 165.5,337.5 C 166.167,346.5 166.833,355.5 167.5,364.5C 167.875,367.397 167.375,370.063 166,372.5C 165.5,360.838 165.333,349.171 165.5,337.5 Z"/></g>
<g><path style="opacity:1" fill="#e6c35d" d="M 1427.5,359.5 C 1430.78,359.216 1433.94,359.549 1437,360.5C 1439.99,370.121 1442.82,379.788 1445.5,389.5C 1443.1,393.01 1440.27,393.343 1437,390.5C 1434.13,380.058 1430.96,369.725 1427.5,359.5 Z"/></g>
<g><path style="opacity:1" fill="#e6c461" d="M 703.5,360.5 C 704.978,360.238 706.311,360.571 707.5,361.5C 691.798,369.225 686.965,381.225 693,397.5C 696.445,401.783 700.612,405.117 705.5,407.5C 690.651,408.163 682.317,400.997 680.5,386C 681.297,379.939 683.464,374.439 687,369.5C 692.076,365.548 697.576,362.548 703.5,360.5 Z"/></g>
<g><path style="opacity:1" fill="#e6c462" d="M 1262.5,370.5 C 1268.62,370.292 1269.12,371.959 1264,375.5C 1260.98,380.525 1258.82,385.858 1257.5,391.5C 1254.46,391.508 1251.46,391.841 1248.5,392.5C 1249.63,386.94 1251.46,381.607 1254,376.5C 1256.32,373.605 1259.16,371.605 1262.5,370.5 Z"/></g>
<g><path style="opacity:1" fill="#e7c35d" d="M 921.5,371.5 C 924.167,371.5 926.833,371.5 929.5,371.5C 929.854,393.166 930.187,414.833 930.5,436.5C 927.5,436.5 924.5,436.5 921.5,436.5C 920.394,414.843 920.394,393.176 921.5,371.5 Z"/></g>
<g><path style="opacity:1" fill="#e5c055" d="M 1361.5,371.5 C 1362.92,372.451 1364.59,372.784 1366.5,372.5C 1366.17,412.67 1366.5,452.67 1367.5,492.5C 1367.57,501.189 1368.07,509.855 1369,518.5C 1371.38,523.719 1375.22,527.386 1380.5,529.5C 1379.79,530.404 1378.79,530.737 1377.5,530.5C 1365.9,530.07 1359.74,524.07 1359,512.5C 1358.33,478.5 1358.33,444.5 1359,410.5C 1358.85,397.128 1359.68,384.128 1361.5,371.5 Z"/></g>
<g><path style="opacity:1" fill="#ead89e" d="M 1361.5,371.5 C 1363.5,371.5 1365.5,371.5 1367.5,371.5C 1367.5,411.833 1367.5,452.167 1367.5,492.5C 1366.5,452.67 1366.17,412.67 1366.5,372.5C 1364.59,372.784 1362.92,372.451 1361.5,371.5 Z"/></g>
<g><path style="opacity:1" fill="#437065" d="M 1832.5,365.5 C 1833.31,367.631 1833.81,369.964 1834,372.5C 1834.83,410.002 1834.66,447.336 1833.5,484.5C 1833.68,444.827 1833.35,405.16 1832.5,365.5 Z"/></g>
<g><path style="opacity:1" fill="#e2bb42" d="M 1520.5,372.5 C 1520.83,372.5 1521.17,372.5 1521.5,372.5C 1522.57,373.434 1523.9,373.768 1525.5,373.5C 1525.5,389.167 1525.5,404.833 1525.5,420.5C 1524.17,420.5 1522.83,420.5 1521.5,420.5C 1519.85,413.726 1518.85,406.726 1518.5,399.5C 1518.5,396.5 1518.5,393.5 1518.5,390.5C 1517.95,384.208 1518.61,378.208 1520.5,372.5 Z"/></g>
<g><path style="opacity:1" fill="#ead8a1" d="M 1521.5,372.5 C 1523.17,372.5 1524.83,372.5 1526.5,372.5C 1526.83,388.675 1526.5,404.675 1525.5,420.5C 1525.5,404.833 1525.5,389.167 1525.5,373.5C 1523.9,373.768 1522.57,373.434 1521.5,372.5 Z"/></g>
<g><path style="opacity:1" fill="#f6f5ef" d="M 1520.5,372.5 C 1518.61,378.208 1517.95,384.208 1518.5,390.5C 1517.51,384.69 1517.18,378.69 1517.5,372.5C 1518.5,372.5 1519.5,372.5 1520.5,372.5 Z"/></g>
<g><path style="opacity:1" fill="#b4beb6" d="M 1506.5,364.5 C 1506.54,386.055 1506.54,407.389 1506.5,428.5C 1505.18,407.039 1505.18,385.706 1506.5,364.5 Z"/></g>
<g><path style="opacity:1" fill="#acb4af" d="M 1615.5,381.5 C 1616.43,382.568 1616.77,383.901 1616.5,385.5C 1611.64,385.819 1606.97,385.486 1602.5,384.5C 1606.83,384.5 1611.17,384.5 1615.5,384.5C 1615.5,383.5 1615.5,382.5 1615.5,381.5 Z"/></g>
<g><path style="opacity:1" fill="#567970" d="M 1221.5,387.5 C 1221.5,388.5 1221.5,389.5 1221.5,390.5C 1226.5,390.5 1231.5,390.5 1236.5,390.5C 1231.3,391.21 1225.96,391.876 1220.5,392.5C 1219.75,390.711 1220.09,389.044 1221.5,387.5 Z"/></g>
<g><path style="opacity:1" fill="#6e7f79" d="M 1424.5,389.5 C 1425.04,389.56 1425.38,389.893 1425.5,390.5C 1419.68,391.816 1414.01,391.816 1408.5,390.5C 1414.03,390.821 1419.36,390.488 1424.5,389.5 Z"/></g>
<g><path style="opacity:1" fill="#d7d9d4" d="M 791.5,394.5 C 792.043,394.56 792.376,394.893 792.5,395.5C 788.893,396.489 785.226,396.823 781.5,396.5C 784.833,395.833 788.167,395.167 791.5,394.5 Z"/></g>
<g><path style="opacity:1" fill="#fbfaf6" d="M 811.5,392.5 C 812.434,393.568 812.768,394.901 812.5,396.5C 809.615,396.806 806.948,396.473 804.5,395.5C 806.833,395.5 809.167,395.5 811.5,395.5C 811.5,394.5 811.5,393.5 811.5,392.5 Z"/></g>
<g><path style="opacity:1" fill="#919b96" d="M 264.5,405.5 C 263.532,407.607 263.198,409.941 263.5,412.5C 262.189,408.317 262.189,403.984 263.5,399.5C 264.466,401.396 264.799,403.396 264.5,405.5 Z"/></g>
<g><path style="opacity:1" fill="#eddca8" d="M 1518.5,399.5 C 1518.85,406.726 1519.85,413.726 1521.5,420.5C 1520.79,421.404 1519.79,421.737 1518.5,421.5C 1518.5,414.167 1518.5,406.833 1518.5,399.5 Z"/></g>
<g><path style="opacity:1" fill="#9ba5a0" d="M 1700.5,410.5 C 1699.5,445.996 1699.17,481.663 1699.5,517.5C 1698.17,481.664 1698.17,445.664 1699.5,409.5C 1700.11,409.624 1700.44,409.957 1700.5,410.5 Z"/></g>
<g><path style="opacity:1" fill="#e4be4d" d="M 1589.5,471.5 C 1587.17,471.5 1584.83,471.5 1582.5,471.5C 1582.83,453.659 1582.5,435.992 1581.5,418.5C 1581.5,415.833 1581.5,413.167 1581.5,410.5C 1584.48,410.173 1587.32,410.173 1590,410.5C 1589.62,430.813 1589.45,451.146 1589.5,471.5 Z"/></g>
<g><path style="opacity:1" fill="#e6c35e" d="M 1121.5,415.5 C 1124.87,417.911 1126.37,421.244 1126,425.5C 1122.79,434.26 1118.79,442.594 1114,450.5C 1112.13,450.686 1110.13,450.353 1108,449.5C 1107.5,449.167 1107,448.833 1106.5,448.5C 1111.24,437.359 1116.24,426.359 1121.5,415.5 Z"/></g>
<g><path style="opacity:1" fill="#eadaac" d="M 1581.5,418.5 C 1582.5,435.992 1582.83,453.659 1582.5,471.5C 1584.83,471.5 1587.17,471.5 1589.5,471.5C 1587.05,472.473 1584.39,472.806 1581.5,472.5C 1581.5,454.5 1581.5,436.5 1581.5,418.5 Z"/></g>
<g><path style="opacity:1" fill="#7e8985" d="M 144.5,420.5 C 144.852,423.073 144.352,425.406 143,427.5C 142.51,426.207 142.343,424.873 142.5,423.5C 143.167,422.5 143.833,421.5 144.5,420.5 Z"/></g>
<g><path style="opacity:1" fill="#e6c35f" d="M 781.5,420.5 C 825.672,429.87 842.172,456.537 831,500.5C 825.508,515.988 815.675,527.821 801.5,536C 794.186,540.048 786.519,543.215 778.5,545.5C 777.289,544.726 777.289,543.893 778.5,543C 815.808,527.221 830.641,499.387 823,459.5C 815.76,440.431 802.26,428.097 782.5,422.5C 781.702,422.043 781.369,421.376 781.5,420.5 Z"/></g>
<g><path style="opacity:1" fill="#181918" d="M 264.5,405.5 C 265.721,419.807 266.721,434.14 267.5,448.5C 267.167,449.833 266.833,451.167 266.5,452.5C 265.002,439.204 264.002,425.871 263.5,412.5C 263.198,409.941 263.532,407.607 264.5,405.5 Z"/></g>
<g><path style="opacity:1" fill="#e6c360" d="M 1710.5,437.5 C 1712.37,437.859 1713.87,438.859 1715,440.5C 1716.67,442.833 1718.33,445.167 1720,447.5C 1720.33,471.167 1720.67,494.833 1721,518.5C 1722.4,521.902 1724.57,524.736 1727.5,527C 1732.98,529.025 1738.65,530.192 1744.5,530.5C 1744.5,535.5 1744.5,540.5 1744.5,545.5C 1741.83,545.5 1739.17,545.5 1736.5,545.5C 1736.5,540.833 1736.5,536.167 1736.5,531.5C 1728.45,531.651 1721.29,529.318 1715,524.5C 1714.33,523.167 1713.67,521.833 1713,520.5C 1710.95,492.8 1710.12,465.133 1710.5,437.5 Z"/></g>
<g><path style="opacity:1" fill="#a0aca6" d="M 909.5,433.5 C 910.483,437.298 910.817,441.298 910.5,445.5C 924.52,445.699 938.52,445.366 952.5,444.5C 950.708,445.309 948.708,445.809 946.5,446C 934.171,446.5 921.838,446.667 909.5,446.5C 909.5,442.167 909.5,437.833 909.5,433.5 Z"/></g>
<g><path style="opacity:1" fill="#4e5754" d="M 247.5,447.5 C 248.812,449.743 249.478,452.41 249.5,455.5C 249.558,461.384 248.725,467.05 247,472.5C 247.054,464.18 247.221,455.847 247.5,447.5 Z"/></g>
<g><path style="opacity:1" fill="#d4d7d2" d="M 1154.5,456.5 C 1155.04,456.56 1155.38,456.893 1155.5,457.5C 1151.55,458.491 1147.55,458.824 1143.5,458.5C 1147.17,457.833 1150.83,457.167 1154.5,456.5 Z"/></g>
<g><path style="opacity:1" fill="#e6c258" d="M 1526.5,491.5 C 1525.51,497.645 1525.18,503.978 1525.5,510.5C 1523.9,510.232 1522.57,510.566 1521.5,511.5C 1520.5,511.5 1519.5,511.5 1518.5,511.5C 1518.51,495.479 1518.35,479.479 1518,463.5C 1521.06,462.549 1524.22,462.216 1527.5,462.5C 1527.29,472.172 1526.96,481.839 1526.5,491.5 Z"/></g>
<g><path style="opacity:1" fill="#ede1be" d="M 998.5,466.5 C 998.842,467.338 999.508,467.672 1000.5,467.5C 998.02,469.117 995.354,469.45 992.5,468.5C 994.304,467.232 996.304,466.565 998.5,466.5 Z"/></g>
<g><path style="opacity:1" fill="#f0f0eb" d="M 915.5,470.5 C 914.081,471.451 912.415,471.784 910.5,471.5C 910.802,474.059 910.468,476.393 909.5,478.5C 909.5,475.833 909.5,473.167 909.5,470.5C 911.5,470.5 913.5,470.5 915.5,470.5 Z"/></g>
<g><path style="opacity:1" fill="#e7c461" d="M 948.5,529.5 C 949.919,530.451 951.585,530.784 953.5,530.5C 953.5,535.167 953.5,539.833 953.5,544.5C 951.144,545.575 948.811,545.575 946.5,544.5C 945.557,539.9 945.223,535.233 945.5,530.5C 936.375,530.739 928.875,527.406 923,520.5C 921.454,511.076 920.621,501.576 920.5,492C 920.539,487.74 921.206,483.74 922.5,480C 925.624,478.913 927.957,479.747 929.5,482.5C 930.742,490.654 930.742,498.821 929.5,507C 929.16,520.159 935.493,527.659 948.5,529.5 Z"/></g>
<g><path style="opacity:1" fill="#e7c563" d="M 712.5,521.5 C 712.158,522.338 711.492,522.672 710.5,522.5C 690.584,520.052 674.417,511.052 662,495.5C 659.639,492.112 657.806,488.446 656.5,484.5C 656.709,483.914 657.043,483.414 657.5,483C 659.833,482.333 662.167,482.333 664.5,483C 668.878,493.719 675.878,502.385 685.5,509C 694.113,514.248 703.113,518.415 712.5,521.5 Z"/></g>
<g><path style="opacity:1" fill="#161817" d="M 245.5,485.5 C 246.487,490.305 246.821,495.305 246.5,500.5C 245.873,505.141 245.54,509.807 245.5,514.5C 244.514,510.03 244.181,505.363 244.5,500.5C 244.337,495.453 244.671,490.453 245.5,485.5 Z"/></g>
<g><path style="opacity:1" fill="#96a09b" d="M 245.5,485.5 C 245.56,484.957 245.893,484.624 246.5,484.5C 247.815,489.986 247.815,495.32 246.5,500.5C 246.821,495.305 246.487,490.305 245.5,485.5 Z"/></g>
<g><path style="opacity:1" fill="#e9e2cb" d="M 1088.5,491.5 C 1090.95,490.527 1093.61,490.194 1096.5,490.5C 1096.74,491.791 1096.4,492.791 1095.5,493.5C 1093.72,491.656 1091.39,490.99 1088.5,491.5 Z"/></g>
<g><path style="opacity:1" fill="#e5c25a" d="M 1088.5,491.5 C 1091.39,490.99 1093.72,491.656 1095.5,493.5C 1092.14,500.729 1089.47,508.229 1087.5,516C 1088.03,522.371 1091.37,526.537 1097.5,528.5C 1095.74,529.461 1093.74,529.795 1091.5,529.5C 1084.38,528.211 1080.04,524.044 1078.5,517C 1080.31,507.882 1083.64,499.382 1088.5,491.5 Z"/></g>
<g><path style="opacity:1" fill="#ead89d" d="M 1526.5,491.5 C 1526.5,498.167 1526.5,504.833 1526.5,511.5C 1524.83,511.5 1523.17,511.5 1521.5,511.5C 1522.57,510.566 1523.9,510.232 1525.5,510.5C 1525.18,503.978 1525.51,497.645 1526.5,491.5 Z"/></g>
<g><path style="opacity:1" fill="#bcc2bf" d="M 1626.5,493.5 C 1627.21,492.596 1628.21,492.263 1629.5,492.5C 1629.79,494.735 1629.46,496.735 1628.5,498.5C 1628.92,496.219 1628.26,494.552 1626.5,493.5 Z"/></g>
<g><path style="opacity:1" fill="#e6c35e" d="M 1641.5,493.5 C 1644.17,493.5 1646.83,493.5 1649.5,493.5C 1646.3,510.856 1642.96,528.189 1639.5,545.5C 1636.32,545.742 1633.32,545.742 1630.5,545.5C 1633.4,527.978 1637.07,510.645 1641.5,493.5 Z"/></g>
<g><path style="opacity:1" fill="#6a7671" d="M 244.5,500.5 C 244.181,505.363 244.514,510.03 245.5,514.5C 245.005,516.482 244.505,518.482 244,520.5C 243.179,513.654 243.346,506.987 244.5,500.5 Z"/></g>
<g><path style="opacity:1" fill="#1b1c1b" d="M 269.5,464.5 C 270.117,464.611 270.617,464.944 271,465.5C 272.95,492.833 275.783,520 279.5,547C 279.167,547.167 278.833,547.333 278.5,547.5C 276.874,544.002 275.707,540.335 275,536.5C 273.627,512.443 271.794,488.443 269.5,464.5 Z"/></g>
<g><path style="opacity:1" fill="#ebd699" d="M 1874.5,516.5 C 1875.49,525.652 1875.83,534.985 1875.5,544.5C 1877.5,544.5 1879.5,544.5 1881.5,544.5C 1881.19,541.615 1881.53,538.948 1882.5,536.5C 1882.5,539.5 1882.5,542.5 1882.5,545.5C 1879.79,545.737 1877.29,545.737 1875,545.5C 1874.5,535.839 1874.33,526.172 1874.5,516.5 Z"/></g>
<g><path style="opacity:1" fill="#ece0bc" d="M 712.5,521.5 C 714.696,521.565 716.696,522.232 718.5,523.5C 715.646,524.45 712.98,524.117 710.5,522.5C 711.492,522.672 712.158,522.338 712.5,521.5 Z"/></g>
<g><path style="opacity:1" fill="#ede0ba" d="M 1097.5,528.5 C 1100.66,528.99 1103.66,529.656 1106.5,530.5C 1103.94,530.198 1101.61,530.532 1099.5,531.5C 1096.72,530.922 1094.05,530.255 1091.5,529.5C 1093.74,529.795 1095.74,529.461 1097.5,528.5 Z"/></g>
<g><path style="opacity:1" fill="#ede6d0" d="M 1380.5,529.5 C 1383.71,529.19 1386.71,529.523 1389.5,530.5C 1386.61,530.194 1383.95,530.527 1381.5,531.5C 1379.9,531.768 1378.57,531.434 1377.5,530.5C 1378.79,530.737 1379.79,530.404 1380.5,529.5 Z"/></g>
<g><path style="opacity:1" fill="#e3bd4b" d="M 1106.5,530.5 C 1106.83,530.5 1107.17,530.5 1107.5,530.5C 1107.5,535.167 1107.5,539.833 1107.5,544.5C 1105.17,544.5 1102.83,544.5 1100.5,544.5C 1099.52,540.366 1099.18,536.032 1099.5,531.5C 1101.61,530.532 1103.94,530.198 1106.5,530.5 Z"/></g>
<g><path style="opacity:1" fill="#e7e4d4" d="M 1107.5,530.5 C 1108.49,535.305 1108.82,540.305 1108.5,545.5C 1105.61,545.806 1102.95,545.473 1100.5,544.5C 1102.83,544.5 1105.17,544.5 1107.5,544.5C 1107.5,539.833 1107.5,535.167 1107.5,530.5 Z"/></g>
<g><path style="opacity:1" fill="#e5c25c" d="M 1389.5,530.5 C 1390.49,535.305 1390.82,540.305 1390.5,545.5C 1387.83,545.5 1385.17,545.5 1382.5,545.5C 1381.87,540.859 1381.54,536.193 1381.5,531.5C 1383.95,530.527 1386.61,530.194 1389.5,530.5 Z"/></g>
<g><path style="opacity:1" fill="#89948f" d="M 1714.5,530.5 C 1717.5,530.5 1720.5,530.5 1723.5,530.5C 1723.5,531.833 1723.5,533.167 1723.5,534.5C 1722.6,533.791 1722.26,532.791 1722.5,531.5C 1719.61,531.806 1716.95,531.473 1714.5,530.5 Z"/></g>
<g><path style="opacity:1" fill="#a0aaa4" d="M 1651.5,530.5 C 1649.74,531.461 1647.74,531.795 1645.5,531.5C 1645.5,536.167 1645.5,540.833 1645.5,545.5C 1644.51,540.695 1644.18,535.695 1644.5,530.5C 1646.83,530.5 1649.17,530.5 1651.5,530.5 Z"/></g>
<g><path style="opacity:1" fill="#ebdaa5" d="M 948.5,529.5 C 950.5,529.5 952.5,529.5 954.5,529.5C 954.821,534.695 954.487,539.695 953.5,544.5C 953.5,539.833 953.5,535.167 953.5,530.5C 951.585,530.784 949.919,530.451 948.5,529.5 Z"/></g>
<g><path style="opacity:1" fill="#9da6a1" d="M 631.5,541.5 C 632.404,542.209 632.737,543.209 632.5,544.5C 635.059,544.198 637.393,544.532 639.5,545.5C 636.833,545.5 634.167,545.5 631.5,545.5C 631.5,544.167 631.5,542.833 631.5,541.5 Z"/></g>
<g><path style="opacity:1" fill="#f6f7f6" d="M 834.5,543.5 C 837.054,544.388 839.721,544.721 842.5,544.5C 841.378,545.156 840.045,545.489 838.5,545.5C 836.667,545.415 835.334,544.748 834.5,543.5 Z"/></g>
<g><path style="opacity:1" fill="#e6e6e0" d="M 923.5,529.5 C 927.167,529.5 930.833,529.5 934.5,529.5C 934.5,534.833 934.5,540.167 934.5,545.5C 911.994,545.831 889.66,545.497 867.5,544.5C 889.5,544.5 911.5,544.5 933.5,544.5C 933.5,539.833 933.5,535.167 933.5,530.5C 929.958,530.813 926.625,530.479 923.5,529.5 Z"/></g>
<g><path style="opacity:1" fill="#b2b9b4" d="M 1175.5,529.5 C 1173.39,530.468 1171.06,530.802 1168.5,530.5C 1168.5,535.167 1168.5,539.833 1168.5,544.5C 1195.5,544.5 1222.5,544.5 1249.5,544.5C 1222.34,545.498 1195.01,545.831 1167.5,545.5C 1167.5,540.167 1167.5,534.833 1167.5,529.5C 1170.17,529.5 1172.83,529.5 1175.5,529.5 Z"/></g>
<g><path style="opacity:1" fill="#99a6a0" d="M 1287.5,529.5 C 1284.12,531.082 1280.46,531.749 1276.5,531.5C 1276.5,535.833 1276.5,540.167 1276.5,544.5C 1288.35,544.172 1300.01,544.505 1311.5,545.5C 1299.5,545.5 1287.5,545.5 1275.5,545.5C 1275.33,540.489 1275.5,535.489 1276,530.5C 1279.63,530.432 1283.47,530.098 1287.5,529.5 Z"/></g>
<g><path style="opacity:1" fill="#b3bab4" d="M 1433.5,530.5 C 1433.5,535.167 1433.5,539.833 1433.5,544.5C 1439.5,544.5 1445.5,544.5 1451.5,544.5C 1451.5,544.833 1451.5,545.167 1451.5,545.5C 1445.17,545.5 1438.83,545.5 1432.5,545.5C 1432.17,539.732 1432.5,534.732 1433.5,530.5 Z"/></g>
<g><path style="opacity:1" fill="#798681" d="M 1619.5,541.5 C 1619.5,542.833 1619.5,544.167 1619.5,545.5C 1563.5,545.5 1507.5,545.5 1451.5,545.5C 1451.5,545.167 1451.5,544.833 1451.5,544.5C 1507.17,544.5 1562.83,544.5 1618.5,544.5C 1618.26,543.209 1618.6,542.209 1619.5,541.5 Z"/></g>
<g><path style="opacity:1" fill="#f9f9f7" d="M 1723.5,541.5 C 1724.45,542.919 1724.78,544.585 1724.5,546.5C 1713.32,546.828 1702.32,546.495 1691.5,545.5C 1702.17,545.5 1712.83,545.5 1723.5,545.5C 1723.5,544.167 1723.5,542.833 1723.5,541.5 Z"/></g>
<g><path style="opacity:1" fill="#191b1a" d="M 241.5,543.5 C 239.857,561.32 237.69,579.32 235,597.5C 234.834,602.166 232.834,605.833 229,608.5C 233.22,586.897 237.387,565.23 241.5,543.5 Z"/></g>
<g><path style="opacity:1" fill="#1a1c1b" d="M 272.5,558.5 C 273.833,558.5 275.167,558.5 276.5,558.5C 276.5,559.833 276.5,561.167 276.5,562.5C 273.858,562.512 272.525,561.179 272.5,558.5 Z"/></g>
<g><path style="opacity:1" fill="#1b1d1c" d="M 392.5,562.5 C 394.982,570.937 397.149,579.604 399,588.5C 399.667,593.833 399.667,599.167 399,604.5C 398.586,604.957 398.086,605.291 397.5,605.5C 396.3,591.103 394.633,576.769 392.5,562.5 Z"/></g>
<g><path style="opacity:1" fill="#151615" d="M 271.5,567.5 C 274.9,567.032 277.233,568.365 278.5,571.5C 274.209,573.515 271.876,572.181 271.5,567.5 Z"/></g>
<g><path style="opacity:1" fill="#050505" d="M 289.5,568.5 C 290.274,567.853 291.274,567.52 292.5,567.5C 295.826,568.047 299.16,568.547 302.5,569C 298.152,569.415 293.819,569.249 289.5,568.5 Z"/></g>
<g><path style="opacity:1" fill="#5b6561" d="M 227.5,573.5 C 227.737,572.209 227.404,571.209 226.5,570.5C 226.913,568.11 227.579,565.777 228.5,563.5C 228.833,564 229.167,564.5 229.5,565C 228.965,567.996 228.298,570.829 227.5,573.5 Z"/></g>
<g><path style="opacity:1" fill="#151615" d="M 123.5,585.5 C 123.5,591.5 123.5,597.5 123.5,603.5C 122.5,603.5 121.5,603.5 120.5,603.5C 120.072,592.712 120.905,582.046 123,571.5C 123.499,576.155 123.666,580.821 123.5,585.5 Z"/></g>
<g><path style="opacity:1" fill="#303432" d="M 288.5,575.5 C 288.56,574.957 288.893,574.624 289.5,574.5C 295.478,575.128 301.478,575.794 307.5,576.5C 301.032,577.918 294.699,577.585 288.5,575.5 Z"/></g>
<g><path style="opacity:1" fill="#232624" d="M 270.5,576.5 C 274.836,576.272 278.17,577.939 280.5,581.5C 279.277,582.614 277.944,582.781 276.5,582C 273.74,580.821 271.74,578.988 270.5,576.5 Z"/></g>
<g><path style="opacity:1" fill="#6c7874" d="M 213.5,593.5 C 213.813,589.958 213.479,586.625 212.5,583.5C 212.312,581.897 212.812,580.563 214,579.5C 214.815,584.352 214.648,589.019 213.5,593.5 Z"/></g>
<g><path style="opacity:1" fill="#c4c9c4" d="M 508.5,474.5 C 509.664,507.998 509.831,541.664 509,575.5C 508.826,580.684 508.326,585.684 507.5,590.5C 508.393,551.842 508.727,513.175 508.5,474.5 Z"/></g>
<g><path style="opacity:1" fill="#1b1d1c" d="M 212.5,583.5 C 213.479,586.625 213.813,589.958 213.5,593.5C 213.148,598.327 212.148,602.994 210.5,607.5C 210.167,607.833 209.833,608.167 209.5,608.5C 209.167,606.667 208.833,604.833 208.5,603C 209.281,596.377 210.614,589.877 212.5,583.5 Z"/></g>
<g><path style="opacity:1" fill="#151615" d="M 226.5,570.5 C 227.404,571.209 227.737,572.209 227.5,573.5C 227.646,583 226.479,592.334 224,601.5C 223.117,604.102 221.617,606.269 219.5,608C 218.035,608.601 217.035,608.101 216.5,606.5C 217.467,604.37 218.634,602.37 220,600.5C 221.89,590.405 224.057,580.405 226.5,570.5 Z"/></g>
<g><path style="opacity:1" fill="#606c68" d="M 390.5,588.5 C 389.513,593.305 389.179,598.305 389.5,603.5C 388.347,597.347 388.18,591.014 389,584.5C 390.188,585.563 390.688,586.897 390.5,588.5 Z"/></g>
<g><path style="opacity:1" fill="#959f9a" d="M 123.5,585.5 C 124.49,591.645 124.823,597.978 124.5,604.5C 122.901,604.768 121.568,604.434 120.5,603.5C 121.5,603.5 122.5,603.5 123.5,603.5C 123.5,597.5 123.5,591.5 123.5,585.5 Z"/></g>
<g><path style="opacity:1" fill="#e4be4e" d="M 1114.5,666.5 C 1121.98,667.492 1129.65,667.825 1137.5,667.5C 1137.5,669.167 1137.5,670.833 1137.5,672.5C 1137.24,675.016 1136.41,677.35 1135,679.5C 1124.67,695.167 1114.33,710.833 1104,726.5C 1102.68,729.406 1102.35,732.406 1103,735.5C 1104.19,736.43 1105.53,737.097 1107,737.5C 1111.19,735.987 1115.02,733.821 1118.5,731C 1125.3,725.199 1131.8,719.032 1138,712.5C 1145.67,701.167 1153.33,689.833 1161,678.5C 1163.29,674.813 1164.45,670.813 1164.5,666.5C 1172.83,666.5 1181.17,666.5 1189.5,666.5C 1189.91,670.463 1189.08,674.13 1187,677.5C 1176,693.833 1165,710.167 1154,726.5C 1151.28,734.447 1154.11,737.28 1162.5,735C 1169.88,730.627 1176.38,725.127 1182,718.5C 1195.25,702.989 1206.75,686.322 1216.5,668.5C 1224.17,667.833 1231.83,667.167 1239.5,666.5C 1240.69,666.97 1241.36,667.97 1241.5,669.5C 1240.42,673.763 1238.25,677.43 1235,680.5C 1234.33,681.167 1234.33,681.833 1235,682.5C 1243.54,674.293 1253.38,668.126 1264.5,664C 1279.58,661.429 1286.75,667.596 1286,682.5C 1285,684.5 1284,686.5 1283,688.5C 1273.28,701.892 1263.94,715.559 1255,729.5C 1253.61,733.202 1254.77,735.202 1258.5,735.5C 1273.31,729.861 1284.14,719.861 1291,705.5C 1303.78,683.528 1322.62,670.028 1347.5,665C 1354.17,663.966 1360.5,664.966 1366.5,668C 1371.67,673.471 1371,678.471 1364.5,683C 1362.92,683.707 1361.42,684.54 1360,685.5C 1358.93,681.572 1357.93,677.572 1357,673.5C 1354.08,671.607 1350.92,671.107 1347.5,672C 1328.67,685.174 1315.5,702.674 1308,724.5C 1307.33,727.833 1307.33,731.167 1308,734.5C 1309.21,736.049 1310.71,737.215 1312.5,738C 1322.34,739.94 1331.01,737.606 1338.5,731C 1344.64,725.866 1350.47,720.366 1356,714.5C 1377.33,682.5 1398.67,650.5 1420,618.5C 1422.03,615.439 1423.2,612.105 1423.5,608.5C 1431.1,606.533 1439.1,605.866 1447.5,606.5C 1449.97,608.842 1450.13,611.508 1448,614.5C 1433.5,636.167 1419,657.833 1404.5,679.5C 1404.67,679.833 1404.83,680.167 1405,680.5C 1413.5,673.331 1423,667.831 1433.5,664C 1448.5,661.386 1455.33,667.553 1454,682.5C 1452.25,686.327 1450.25,689.993 1448,693.5C 1440.09,703.655 1432.42,713.988 1425,724.5C 1422.79,727.85 1422.29,731.35 1423.5,735C 1425.83,735.667 1428.17,735.667 1430.5,735C 1444.26,727.903 1453.76,717.069 1459,702.5C 1474.03,680.236 1494.87,667.569 1521.5,664.5C 1530.22,663.19 1536.22,666.523 1539.5,674.5C 1537.71,681.797 1533.71,687.63 1527.5,692C 1513.35,700.998 1498.01,707.164 1481.5,710.5C 1476.78,717.5 1474.61,725.167 1475,733.5C 1478.06,738.635 1482.56,740.468 1488.5,739C 1498.11,737.027 1506.45,732.694 1513.5,726C 1529.74,708.605 1543.41,689.439 1554.5,668.5C 1562.17,667.833 1569.83,667.167 1577.5,666.5C 1578.69,666.97 1579.36,667.97 1579.5,669.5C 1579.33,670.5 1579.17,671.5 1579,672.5C 1577,675.52 1575.33,678.52 1574,681.5C 1582.37,673.229 1592.21,667.396 1603.5,664C 1618.08,661.922 1624.91,668.089 1624,682.5C 1615.84,696.989 1606.51,710.656 1596,723.5C 1593.13,727.02 1592.29,730.853 1593.5,735C 1595.5,735.667 1597.5,735.667 1599.5,735C 1615.45,725.38 1628.45,712.713 1638.5,697C 1640.07,696.301 1641.41,696.635 1642.5,698C 1632.62,712.22 1620.95,724.886 1607.5,736C 1598.28,743.527 1587.94,746.527 1576.5,745C 1569.03,741.88 1566.53,736.38 1569,728.5C 1571.16,723.508 1573.83,718.841 1577,714.5C 1586.07,703.362 1594.4,691.695 1602,679.5C 1603.47,674.967 1601.8,672.633 1597,672.5C 1590.57,674.134 1584.73,676.967 1579.5,681C 1574.05,685.485 1568.88,690.319 1564,695.5C 1553.39,711.739 1542.56,727.739 1531.5,743.5C 1523.32,743.826 1515.32,743.492 1507.5,742.5C 1509.67,738.878 1511.51,735.211 1513,731.5C 1497.11,747.016 1478.94,750.516 1458.5,742C 1453.48,737.288 1450.98,731.454 1451,724.5C 1442.32,734.191 1431.82,741.024 1419.5,745C 1402.16,746.648 1396.33,739.148 1402,722.5C 1409.89,709.941 1418.56,697.941 1428,686.5C 1430.94,682.285 1432.11,677.618 1431.5,672.5C 1427.21,672.035 1423.21,672.868 1419.5,675C 1409.98,680.859 1401.48,688.026 1394,696.5C 1383.14,712.233 1372.31,727.9 1361.5,743.5C 1353.32,743.826 1345.32,743.492 1337.5,742.5C 1339.36,739.277 1341.36,736.11 1343.5,733C 1343.17,732.833 1342.83,732.667 1342.5,732.5C 1329.19,745.576 1313.53,749.743 1295.5,745C 1289.84,742.668 1286.34,738.501 1285,732.5C 1284.67,729.167 1284.33,725.833 1284,722.5C 1273.76,735.094 1260.76,743.094 1245,746.5C 1233.57,745.74 1228.91,739.74 1231,728.5C 1233.93,722.573 1237.27,716.906 1241,711.5C 1248.38,702.45 1255.38,693.116 1262,683.5C 1266.3,674.129 1263.47,670.962 1253.5,674C 1243.19,679.64 1234.02,686.806 1226,695.5C 1215.39,711.739 1204.56,727.739 1193.5,743.5C 1185.1,744.134 1177.1,743.467 1169.5,741.5C 1171.16,738.861 1172.82,736.195 1174.5,733.5C 1174.17,733.167 1173.83,732.833 1173.5,732.5C 1167.67,738.836 1160.67,743.336 1152.5,746C 1135.11,748.612 1127.94,741.445 1131,724.5C 1123.15,733.688 1113.65,740.521 1102.5,745C 1095.95,746.081 1089.61,745.414 1083.5,743C 1079.32,739.099 1077.48,734.265 1078,728.5C 1070.55,738.061 1060.88,744.061 1049,746.5C 1041.44,746.054 1036.11,742.387 1033,735.5C 1032.01,727.354 1032.68,719.354 1035,711.5C 1043.96,687.232 1056.29,664.899 1072,644.5C 1083.16,630.581 1094.66,617.581 1106.5,605.5C 1086.94,618.562 1070.1,634.562 1056,653.5C 1038.14,680.372 1017.64,705.206 994.5,728C 986.799,734.184 978.466,739.351 969.5,743.5C 968.263,743.444 967.263,742.944 966.5,742C 973.097,736.726 978.263,730.226 982,722.5C 985.06,715.32 987.727,707.986 990,700.5C 994.533,682.699 999.533,665.033 1005,647.5C 1009.38,636.717 1014.72,626.717 1021,617.5C 997.229,647.936 974.229,678.936 952,710.5C 939.152,726.354 923.652,738.854 905.5,748C 889.225,754.886 873.558,753.886 858.5,745C 847.409,733.572 843.909,720.072 848,704.5C 859.783,667.545 884.617,645.212 922.5,637.5C 941.11,639.052 948.943,649.052 946,667.5C 944.181,676.643 939.681,684.143 932.5,690C 928.603,693.531 924.436,696.697 920,699.5C 918.115,698.687 917.449,697.353 918,695.5C 932.332,684.837 935.666,671.504 928,655.5C 920.824,649.805 912.658,647.971 903.5,650C 885.753,654.745 873.253,665.579 866,682.5C 859.495,696.583 860.162,710.25 868,723.5C 874.775,730.041 882.942,733.374 892.5,733.5C 908.755,731.703 923.089,725.537 935.5,715C 941.635,709.866 947.469,704.366 953,698.5C 971.384,675.117 989.384,651.451 1007,627.5C 1019.77,610.229 1035.93,597.229 1055.5,588.5C 1056.83,589.833 1056.83,591.167 1055.5,592.5C 1049.81,596.024 1045.31,600.691 1042,606.5C 1034.67,631.828 1027.33,657.162 1020,682.5C 1016.51,690.463 1012.85,698.13 1009,705.5C 1023.45,689.92 1036.45,673.253 1048,655.5C 1063.92,636.577 1081.42,619.41 1100.5,604C 1112.82,596.005 1126.15,590.505 1140.5,587.5C 1142.32,587.342 1143.65,588.009 1144.5,589.5C 1131.89,594.925 1121.06,602.925 1112,613.5C 1091.99,636.823 1075.99,662.823 1064,691.5C 1061.46,698.827 1059.63,706.327 1058.5,714C 1059.85,723.177 1064.85,725.844 1073.5,722C 1080.91,717.927 1087.08,712.427 1092,705.5C 1097.42,696.993 1103.09,688.66 1109,680.5C 1111.92,676.476 1113.09,672.143 1112.5,667.5C 1112.96,666.702 1113.62,666.369 1114.5,666.5 Z M 1519.5,668.5 C 1523.46,667.973 1525.79,669.64 1526.5,673.5C 1523.28,684.225 1516.61,692.059 1506.5,697C 1499.54,700.765 1492.21,703.099 1484.5,704C 1493.72,689.616 1505.38,677.783 1519.5,668.5 Z"/></g>
<g><path style="opacity:1" fill="#1a1c1b" d="M 271.5,586.5 C 274.079,587.228 276.746,587.728 279.5,588C 281.394,589.079 281.727,590.413 280.5,592C 275.881,592.891 272.881,591.057 271.5,586.5 Z"/></g>
<g><path style="opacity:1" fill="#242726" d="M 200.5,587.5 C 201.586,587.62 202.253,588.287 202.5,589.5C 201.994,595.052 200.66,600.385 198.5,605.5C 198.167,604.333 197.833,603.167 197.5,602C 198.426,597.133 199.426,592.299 200.5,587.5 Z"/></g>
<g><path style="opacity:1" fill="#151615" d="M 129.5,588.5 C 130.777,589.694 131.444,591.36 131.5,593.5C 132.425,597.869 132.425,602.202 131.5,606.5C 130.808,605.975 130.308,605.308 130,604.5C 129.501,599.177 129.334,593.844 129.5,588.5 Z"/></g>
<g><path style="opacity:1" fill="#242726" d="M 189.5,592.5 C 191.026,593.492 191.693,594.992 191.5,597C 191.637,599.556 190.804,601.723 189,603.5C 189.11,599.871 189.276,596.204 189.5,592.5 Z"/></g>
<g><path style="opacity:1" fill="#292d2b" d="M 138.5,593.5 C 139.117,593.611 139.617,593.944 140,594.5C 140.246,597.89 140.746,601.223 141.5,604.5C 140.675,605.386 139.675,605.719 138.5,605.5C 138.5,601.5 138.5,597.5 138.5,593.5 Z"/></g>
<g><path style="opacity:1" fill="#181918" d="M 332.5,606.5 C 325.018,607.492 317.352,607.825 309.5,607.5C 304.489,607.666 299.489,607.499 294.5,607C 288.916,602.596 285.75,596.763 285,589.5C 283.007,578.89 281.674,568.223 281,557.5C 283.183,562.9 284.517,568.566 285,574.5C 286.45,579.815 289.95,582.648 295.5,583C 300.614,583.109 305.614,583.776 310.5,585C 303.156,585.452 295.823,585.285 288.5,584.5C 288.452,587.292 289.785,589.125 292.5,590C 299.782,591.135 307.115,591.801 314.5,592C 307.416,593.822 300.249,593.989 293,592.5C 290.759,592.68 290.259,593.513 291.5,595C 302.039,597.338 312.706,598.838 323.5,599.5C 314.47,600.805 305.47,600.805 296.5,599.5C 295.289,600.274 295.289,601.107 296.5,602C 308.346,604.483 320.346,605.983 332.5,606.5 Z"/></g>
<g><path style="opacity:1" fill="#0f0f0e" d="M 383.5,596.5 C 385.702,598.978 385.869,601.645 384,604.5C 383.503,601.854 383.336,599.187 383.5,596.5 Z"/></g>
<g><path style="opacity:1" fill="#232523" d="M 390.5,588.5 C 391.699,594.492 391.699,600.492 390.5,606.5C 389.614,605.675 389.281,604.675 389.5,603.5C 389.179,598.305 389.513,593.305 390.5,588.5 Z"/></g>
<g><path style="opacity:1" fill="#181a19" d="M 268.5,595.5 C 272.496,596.169 276.496,597.003 280.5,598C 281.687,599.019 282.687,600.186 283.5,601.5C 281.163,602.512 278.83,602.345 276.5,601C 274.421,599.36 272.088,598.194 269.5,597.5C 268.702,597.043 268.369,596.376 268.5,595.5 Z"/></g>
<g><path style="opacity:1" fill="#212322" d="M 178.5,599.5 C 180.465,599.948 180.798,600.948 179.5,602.5C 178.614,601.675 178.281,600.675 178.5,599.5 Z"/></g>
<g><path style="opacity:1" fill="#343937" d="M 144.5,598.5 C 145.586,598.62 146.253,599.287 146.5,600.5C 146.167,601.167 145.833,601.833 145.5,602.5C 144.571,601.311 144.238,599.978 144.5,598.5 Z"/></g>
<g><path style="opacity:1" fill="#121311" d="M 269.5,605.5 C 273.408,604.202 277.408,604.368 281.5,606C 284.274,607.605 284.94,609.772 283.5,612.5C 278.807,610.153 274.14,607.82 269.5,605.5 Z"/></g>
<g><path style="opacity:1" fill="#fefefe" d="M 1447.5,606.5 C 1439.1,605.866 1431.1,606.533 1423.5,608.5C 1422.6,607.791 1422.26,606.791 1422.5,605.5C 1431.02,605.174 1439.35,605.507 1447.5,606.5 Z"/></g>
<g><path style="opacity:1" fill="#8d9793" d="M 332.5,606.5 C 334.429,606.231 336.095,606.731 337.5,608C 327.991,608.824 318.657,608.658 309.5,607.5C 317.352,607.825 325.018,607.492 332.5,606.5 Z"/></g>
<g><path style="opacity:1" fill="#8d9994" d="M 323.5,612.5 C 349.66,612.166 375.994,612.166 402.5,612.5C 376.331,613.531 349.998,613.531 323.5,612.5 Z"/></g>
<g><path style="opacity:1" fill="#171817" d="M 269.5,616.5 C 273.522,615.232 277.689,615.232 282,616.5C 284.685,617.686 286.518,619.686 287.5,622.5C 285.926,623.631 284.259,623.798 282.5,623C 278.951,619.225 274.618,617.059 269.5,616.5 Z"/></g>
<g><path style="opacity:1" fill="#131413" d="M 271.5,624.5 C 278.127,624.144 283.46,626.477 287.5,631.5C 283.595,632.399 280.262,631.232 277.5,628C 275.833,627.667 274.167,627.333 272.5,627C 271.748,626.329 271.414,625.496 271.5,624.5 Z"/></g>
<g><path style="opacity:1" fill="#e4bf4f" d="M 1148.5,625.5 C 1156.14,627.094 1158.97,631.761 1157,639.5C 1154.35,645.63 1150.18,650.463 1144.5,654C 1129.33,656.472 1125.17,650.638 1132,636.5C 1136.1,630.532 1141.6,626.866 1148.5,625.5 Z"/></g>
<g><path style="opacity:1" fill="#e4be4e" d="M 1187.5,625.5 C 1195.16,627.146 1197.99,631.813 1196,639.5C 1192.37,648.134 1186.04,653.468 1177,655.5C 1171.64,655.142 1168.47,652.309 1167.5,647C 1169.25,635.086 1175.92,627.919 1187.5,625.5 Z"/></g>
<g><path style="opacity:1" fill="#151615" d="M 240.5,634.5 C 247.314,634.49 249.814,637.823 248,644.5C 245.773,650.279 242.439,650.946 238,646.5C 236.773,641.938 237.607,637.938 240.5,634.5 Z"/></g>
<g><path style="opacity:1" fill="#171817" d="M 270.5,634.5 C 276.652,633.408 281.818,635.075 286,639.5C 286.483,640.448 286.649,641.448 286.5,642.5C 285.127,642.657 283.793,642.49 282.5,642C 279.298,639.316 275.632,637.483 271.5,636.5C 270.702,636.043 270.369,635.376 270.5,634.5 Z"/></g>
<g><path style="opacity:1" fill="#171816" d="M 186.5,636.5 C 188.5,636.5 190.5,636.5 192.5,636.5C 195.67,646.508 199.336,656.341 203.5,666C 201.421,667.64 199.088,668.806 196.5,669.5C 185.493,661.657 173.16,657.323 159.5,656.5C 138.665,660.225 130.832,672.559 136,693.5C 141.352,707.092 150.852,711.259 164.5,706C 169.749,700.691 171.249,694.524 169,687.5C 167.442,685.641 165.609,684.141 163.5,683C 157.39,682.176 151.39,682.676 145.5,684.5C 144.833,684.167 144.167,683.833 143.5,683.5C 143.231,679.026 142.897,674.36 142.5,669.5C 157.837,669.333 173.17,669.5 188.5,670C 190.333,671.167 191.833,672.667 193,674.5C 193.333,686.167 193.667,697.833 194,709.5C 197.911,712.552 198.411,716.052 195.5,720C 181.123,720.271 166.79,721.104 152.5,722.5C 130.473,723.091 116.973,712.758 112,691.5C 109.587,663.864 122.087,647.364 149.5,642C 160.204,641.792 170.871,642.126 181.5,643C 184.493,641.841 186.16,639.675 186.5,636.5 Z"/></g>
<g><path style="opacity:1" fill="#f7f7f6" d="M 186.5,643.5 C 187.5,643.5 188.5,643.5 189.5,643.5C 191.15,649.954 193.483,656.12 196.5,662C 188.169,658.444 179.502,655.444 170.5,653C 141.95,649.559 128.117,662.059 129,690.5C 134.541,710.318 147.041,716.484 166.5,709C 173.732,701.515 175.232,693.015 171,683.5C 168.958,681.396 166.458,680.229 163.5,680C 158.113,679.216 152.78,679.382 147.5,680.5C 146.534,678.604 146.201,676.604 146.5,674.5C 159.837,674.333 173.171,674.5 186.5,675C 187.321,685.423 187.821,695.923 188,706.5C 188.452,709.149 189.286,711.649 190.5,714C 176.401,715.623 162.235,716.79 148,717.5C 126.921,716.421 115.755,705.255 114.5,684C 115.885,662.607 127.219,649.94 148.5,646C 158.223,645.307 167.889,645.807 177.5,647.5C 181.424,648.035 184.424,646.702 186.5,643.5 Z"/></g>
<g><path style="opacity:1" fill="#1b1d1c" d="M 269.5,643.5 C 274.449,642.959 279.116,643.792 283.5,646C 286.059,647.323 286.725,649.157 285.5,651.5C 281.031,649.177 276.364,647.343 271.5,646C 270.244,645.583 269.577,644.75 269.5,643.5 Z"/></g>
<g><path style="opacity:1" fill="#141513" d="M 270.5,652.5 C 274.582,652.344 278.582,652.844 282.5,654C 284.878,656.211 285.878,658.711 285.5,661.5C 284.205,660.902 282.872,660.402 281.5,660C 277.692,657.451 274.025,654.951 270.5,652.5 Z"/></g>
<g><path style="opacity:1" fill="#151714" d="M 392.5,636.5 C 394.582,636.472 396.416,637.139 398,638.5C 398.185,649.241 399.019,659.907 400.5,670.5C 397.482,670.704 394.482,671.037 391.5,671.5C 387.695,662.884 381.028,657.717 371.5,656C 364.751,655.123 358.084,655.456 351.5,657C 345.435,662.687 346.435,666.353 354.5,668C 361.833,668.333 369.167,668.667 376.5,669C 397.587,673.718 406.087,686.552 402,707.5C 394.723,721.225 383.223,727.225 367.5,725.5C 355.856,724.224 344.189,723.724 332.5,724C 329.377,728.617 325.543,729.783 321,727.5C 320.5,727.167 320,726.833 319.5,726.5C 322.476,714.199 322.142,702.033 318.5,690C 319.927,688.203 321.76,687.036 324,686.5C 328.812,691.312 333.645,696.145 338.5,701C 350.059,709.789 362.726,711.789 376.5,707C 381.818,702.951 381.818,698.951 376.5,695C 366.874,693.64 357.207,692.64 347.5,692C 331.429,688.243 324.262,678.077 326,661.5C 331.507,647.32 341.84,640.32 357,640.5C 364.905,640.901 372.739,641.901 380.5,643.5C 386.067,643.555 390.067,641.222 392.5,636.5 Z"/></g>
<g><path style="opacity:1" fill="#f5f6f5" d="M 391.5,642.5 C 393.117,643.589 393.95,645.256 394,647.5C 394.574,653.856 394.907,660.189 395,666.5C 387.343,656.173 377.01,651.173 364,651.5C 357.524,651.217 351.358,652.384 345.5,655C 338.9,660.792 338.9,666.459 345.5,672C 355.441,673.229 365.441,673.896 375.5,674C 391.665,677.831 398.832,687.998 397,704.5C 393.587,712.91 387.42,718.077 378.5,720C 363.131,719.828 347.798,719.161 332.5,718C 329.217,719.561 326.383,721.727 324,724.5C 324.813,718.589 325.313,712.589 325.5,706.5C 325.478,701.677 324.978,697.01 324,692.5C 332.268,702.72 342.768,709.553 355.5,713C 362.577,713.371 369.577,712.704 376.5,711C 383.373,707.699 385.539,702.532 383,695.5C 381.786,693.951 380.286,692.785 378.5,692C 367.912,690.122 357.245,688.788 346.5,688C 333.854,684.216 328.021,675.716 329,662.5C 334.335,650.01 343.835,643.677 357.5,643.5C 364.723,644.232 371.889,645.232 379,646.5C 382.57,646.456 386.07,645.956 389.5,645C 390.381,644.292 391.047,643.458 391.5,642.5 Z"/></g>
<g><path style="opacity:1" fill="#1b1c1b" d="M 274.5,660.5 C 279.778,660.756 283.445,663.423 285.5,668.5C 285,668.833 284.5,669.167 284,669.5C 279.918,666.711 275.418,664.878 270.5,664C 270.043,663.586 269.709,663.086 269.5,662.5C 271.291,661.83 272.958,661.163 274.5,660.5 Z"/></g>
<g><path style="opacity:1" fill="#ebd9a1" d="M 1114.5,666.5 C 1122.5,666.5 1130.5,666.5 1138.5,666.5C 1138.79,668.735 1138.46,670.735 1137.5,672.5C 1137.5,670.833 1137.5,669.167 1137.5,667.5C 1129.65,667.825 1121.98,667.492 1114.5,666.5 Z"/></g>
<g><path style="opacity:1" fill="#ead8a2" d="M 1239.5,666.5 C 1231.83,667.167 1224.17,667.833 1216.5,668.5C 1215.96,668.44 1215.62,668.107 1215.5,667.5C 1223.47,666.502 1231.47,666.169 1239.5,666.5 Z"/></g>
<g><path style="opacity:1" fill="#ecdaa4" d="M 1577.5,666.5 C 1569.83,667.167 1562.17,667.833 1554.5,668.5C 1553.96,668.44 1553.62,668.107 1553.5,667.5C 1561.47,666.502 1569.47,666.169 1577.5,666.5 Z"/></g>
<g><path style="opacity:1" fill="#171816" d="M 239.5,666.5 C 241.467,666.261 243.301,666.594 245,667.5C 247.678,671.819 247.845,676.153 245.5,680.5C 242.959,683.1 240.459,683.1 238,680.5C 235.653,675.448 236.153,670.781 239.5,666.5 Z"/></g>
<g><path style="opacity:1" fill="#262a28" d="M 269.5,670.5 C 273.936,670.21 278.27,670.71 282.5,672C 284.227,673.389 285.561,675.056 286.5,677C 286.167,677.5 285.833,678 285.5,678.5C 280.758,675.975 275.758,674.141 270.5,673C 269.748,672.329 269.414,671.496 269.5,670.5 Z"/></g>
<g><path style="opacity:1" fill="#f5f5f4" d="M 239.5,689.5 C 254.873,689.121 270.206,689.621 285.5,691C 289.5,693 293.5,695 297.5,697C 299.661,702.01 297.994,704.51 292.5,704.5C 270.656,700.764 248.823,700.764 227,704.5C 223.261,704.095 221.927,702.095 223,698.5C 227.73,693.902 233.23,690.902 239.5,689.5 Z"/></g>
<g><path style="opacity:1" fill="#1f2120" d="M 267.5,695.5 C 276.665,693.802 285.665,694.802 294.5,698.5C 285.578,698.374 276.578,697.374 267.5,695.5 Z"/></g>
<g><path style="opacity:1" fill="#f6f6f6" d="M 240.5,705.5 C 254.171,705.333 267.837,705.5 281.5,706C 285.656,706.414 289.656,707.414 293.5,709C 294.32,718.756 294.82,728.59 295,738.5C 295.556,746.099 298.222,752.766 303,758.5C 303.808,760.579 303.641,762.579 302.5,764.5C 298.63,766.633 294.63,768.466 290.5,770C 274.311,773.762 257.978,774.428 241.5,772C 233.842,770.67 226.509,768.336 219.5,765C 218.409,762.936 218.242,760.769 219,758.5C 223.294,752.908 225.627,746.575 226,739.5C 226.168,729.483 226.668,719.483 227.5,709.5C 231.694,707.437 236.027,706.104 240.5,705.5 Z"/></g>
<g><path style="opacity:1" fill="#687470" d="M 285.5,710.5 C 283.265,710.205 281.265,710.539 279.5,711.5C 278.325,711.719 277.325,711.386 276.5,710.5C 279.645,709.197 282.645,709.197 285.5,710.5 Z"/></g>
<g><path style="opacity:1" fill="#070706" d="M 279.5,711.5 C 281.265,710.539 283.265,710.205 285.5,710.5C 287.551,710.52 288.218,711.187 287.5,712.5C 284.916,711.607 282.249,711.274 279.5,711.5 Z"/></g>
<g><path style="opacity:1" fill="#121312" d="M 275.5,714.5 C 279.182,714.335 282.848,714.501 286.5,715C 287.5,716 288.5,717 289.5,718C 284.505,717.521 279.839,716.354 275.5,714.5 Z"/></g>
<g><path style="opacity:1" fill="#141513" d="M 239.5,719.5 C 246.314,719.49 248.814,722.823 247,729.5C 245.406,734.752 242.406,735.752 238,732.5C 235.57,727.696 236.07,723.363 239.5,719.5 Z"/></g>
<g><path style="opacity:1" fill="#171918" d="M 274.5,720.5 C 278.514,720.334 282.514,720.501 286.5,721C 288.904,721.508 289.571,722.675 288.5,724.5C 283.482,723.538 278.815,722.204 274.5,720.5 Z"/></g>
<g><path style="opacity:1" fill="#1c1e1d" d="M 274.5,726.5 C 277.518,726.335 280.518,726.502 283.5,727C 285.997,727.412 287.997,728.578 289.5,730.5C 289.167,730.833 288.833,731.167 288.5,731.5C 284.139,730.848 279.805,730.015 275.5,729C 274.748,728.329 274.414,727.496 274.5,726.5 Z"/></g>
<g><path style="opacity:1" fill="#1d1f1e" d="M 273.5,734.5 C 278.179,734.334 282.845,734.501 287.5,735C 289.037,736.11 289.703,737.61 289.5,739.5C 284.905,738.352 280.238,737.519 275.5,737C 274.244,736.583 273.577,735.75 273.5,734.5 Z"/></g>
<g><path style="opacity:1" fill="#1d1f1d" d="M 273.5,743.5 C 278.316,742.35 283.316,742.184 288.5,743C 291.477,745.119 291.144,746.286 287.5,746.5C 282.741,745.749 278.075,744.749 273.5,743.5 Z"/></g>
<g><path style="opacity:1" fill="#e6e4da" d="M 1169.5,741.5 C 1177.1,743.467 1185.1,744.134 1193.5,743.5C 1185.35,744.493 1177.02,744.826 1168.5,744.5C 1168.26,743.209 1168.6,742.209 1169.5,741.5 Z"/></g>
<g><path style="opacity:1" fill="#e6e6df" d="M 1337.5,742.5 C 1345.32,743.492 1353.32,743.826 1361.5,743.5C 1353.32,744.821 1344.99,744.821 1336.5,743.5C 1336.62,742.893 1336.96,742.56 1337.5,742.5 Z"/></g>
<g><path style="opacity:1" fill="#e5e4da" d="M 1507.5,742.5 C 1515.32,743.492 1523.32,743.826 1531.5,743.5C 1523.32,744.821 1514.99,744.821 1506.5,743.5C 1506.62,742.893 1506.96,742.56 1507.5,742.5 Z"/></g>
<g><path style="opacity:1" fill="#191a19" d="M 235.5,756.5 C 250.19,756.312 264.857,756.812 279.5,758C 285.779,758.648 291.779,760.315 297.5,763C 277.91,761.75 258.244,761.25 238.5,761.5C 238.33,762.822 238.663,763.989 239.5,765C 242.424,765.988 245.424,766.654 248.5,767C 259.5,767.333 270.5,767.667 281.5,768C 280.167,768.667 278.833,769.333 277.5,770C 259.728,771.973 242.395,770.307 225.5,765C 221.71,762.819 221.71,760.819 225.5,759C 228.952,758.115 232.286,757.282 235.5,756.5 Z"/></g>
<g><path style="opacity:1" fill="#bdc4c1" d="M 380.5,788.5 C 380.027,789.906 379.027,790.573 377.5,790.5C 377.973,789.094 378.973,788.427 380.5,788.5 Z"/></g>
<g><path style="opacity:1" fill="#8c9991" d="M 205.5,813.5 C 208.781,813.42 211.781,814.087 214.5,815.5C 211.219,815.58 208.219,814.913 205.5,813.5 Z"/></g>
</svg>
